<?xml version="1.0" standalone="no"?>
<!DOCTYPE svg PUBLIC "-//W3C//DTD SVG 20010904//EN"
 "http://www.w3.org/TR/2001/REC-SVG-20010904/DTD/svg10.dtd">
<svg version="1.0" xmlns="http://www.w3.org/2000/svg"
 width="512.000000pt" height="512.000000pt" viewBox="0 0 512.000000 512.000000"
 preserveAspectRatio="xMidYMid meet">
<metadata>
Created by potrace 1.14, written by Peter Selinger 2001-2017
</metadata>
<g transform="translate(0.000000,512.000000) scale(0.100000,-0.100000)"
fill="#000000" stroke="none">
<path d="M2650 4084 c-138 -20 -170 -29 -227 -62 -51 -29 -67 -45 -92 -91 -41
-79 -62 -153 -69 -251 -7 -82 -8 -85 -30 -82 -39 6 -52 -15 -52 -80 0 -111 27
-173 94 -213 22 -13 45 -164 34 -219 -13 -61 -18 -64 -117 -61 l-90 2 -41 -38
c-47 -44 -70 -50 -70 -16 0 35 -47 57 -122 57 -41 0 -71 -5 -84 -15 -11 -8
-41 -15 -71 -15 -74 0 -154 -20 -183 -45 -14 -12 -70 -39 -125 -60 -55 -21
-117 -52 -138 -68 -28 -23 -49 -31 -89 -34 -36 -2 -61 -10 -84 -28 -18 -14
-40 -25 -48 -25 -8 0 -53 -22 -99 -49 l-85 -48 15 36 c8 20 30 55 49 78 19 22
38 52 43 66 6 14 27 54 48 89 21 35 44 75 52 90 21 40 157 191 189 207 20 11
56 14 143 12 l115 -2 55 36 c29 21 95 51 144 67 110 37 118 43 103 72 -18 34
-40 45 -88 46 l-45 1 31 13 c28 13 44 33 44 56 0 5 -11 20 -25 34 -14 14 -25
36 -25 48 0 16 -11 30 -32 43 -18 10 -52 34 -76 52 -24 18 -49 33 -57 33 -7 0
-48 18 -91 40 -86 44 -116 49 -139 23 -23 -26 -98 -120 -152 -188 -25 -33 -74
-87 -108 -120 -34 -33 -80 -85 -103 -117 -23 -31 -79 -95 -124 -143 l-83 -86
-85 20 c-47 11 -104 22 -126 26 l-42 6 -16 -48 c-9 -26 -22 -70 -30 -98 -33
-118 -264 -635 -330 -738 -20 -33 -39 -72 -43 -88 -17 -88 82 -188 201 -200
33 -4 129 -31 211 -60 145 -51 153 -53 251 -51 125 1 214 32 286 98 54 50 89
62 132 45 17 -7 56 -19 86 -28 30 -8 69 -28 88 -44 18 -16 45 -30 60 -31 15
-1 36 -2 47 -3 11 -1 38 -3 60 -4 55 -2 64 -10 80 -71 12 -47 12 -76 0 -220
-18 -198 -21 -836 -4 -890 5 -19 14 -84 19 -145 5 -60 14 -172 20 -249 9 -102
9 -163 1 -231 -6 -52 -11 -101 -11 -109 0 -14 95 -16 1000 -16 550 0 1000 1
1000 3 0 1 -9 34 -19 72 -11 39 -32 131 -48 205 -26 126 -28 150 -28 365 1
127 5 381 9 565 l9 335 37 85 c20 47 49 117 64 155 38 101 39 102 72 78 16
-12 49 -26 74 -33 25 -7 54 -16 65 -20 67 -28 102 -19 134 35 18 31 24 35 36
25 8 -7 15 -18 15 -24 0 -21 42 -51 116 -84 61 -28 76 -31 100 -22 34 13 73 6
144 -28 46 -23 67 -27 130 -26 45 1 101 10 140 23 36 11 79 21 95 21 61 1 172
69 201 122 21 41 18 60 -27 150 -60 117 -123 379 -147 601 l-7 69 -140 4
c-131 3 -141 5 -159 26 -10 13 -22 22 -27 21 -5 -2 -5 5 -2 14 5 12 2 15 -9
10 -12 -4 -15 0 -11 16 4 18 3 19 -6 7 -9 -13 -11 -13 -11 2 0 15 -27 49 -100
127 -34 37 -80 100 -80 110 0 5 -9 15 -20 21 -11 6 -19 16 -17 23 1 7 -5 10
-13 9 -8 -2 -12 0 -7 4 9 9 -21 44 -39 44 -7 0 -16 9 -19 20 -3 11 -10 20 -13
20 -4 0 -19 21 -32 47 -14 26 -31 54 -37 61 -7 7 -13 21 -13 30 -1 20 -23 52
-37 52 -16 0 -40 32 -48 65 -5 17 -9 32 -10 35 -1 3 -5 22 -9 42 -5 21 -12 35
-17 32 -5 -3 -9 2 -9 11 0 9 -18 33 -40 55 -22 22 -40 44 -40 50 0 5 -5 10
-10 10 -6 0 -15 11 -20 25 -5 14 -14 25 -20 25 -5 0 -9 3 -9 8 4 21 -4 33 -31
47 -38 20 -42 19 -76 -7 -17 -14 -38 -21 -55 -20 -21 3 -33 -4 -50 -27 -14
-19 -32 -31 -45 -31 -24 0 -64 -35 -64 -56 0 -7 -15 -14 -32 -16 -27 -2 -37
-10 -52 -41 -25 -52 -15 -116 26 -162 33 -38 31 -40 -40 -25 -42 9 -57 8 -105
-10 -57 -21 -83 -49 -73 -76 4 -11 16 -13 45 -8 52 8 162 -28 216 -71 37 -30
48 -33 135 -39 147 -10 173 -15 198 -39 21 -20 149 -182 178 -225 138 -208
183 -290 184 -336 0 -26 -26 -4 -34 29 -6 25 -39 35 -51 15 -11 -17 -35 -11
-35 9 0 35 -48 80 -103 96 -34 10 -64 28 -87 51 -43 45 -180 142 -240 171 -81
39 -153 54 -298 63 -123 8 -148 7 -174 -6 -28 -15 -31 -14 -44 4 -18 25 -59
36 -86 21 -16 -8 -30 -8 -59 1 -39 13 -48 24 -30 35 5 3 19 36 32 73 15 46 37
84 70 123 48 56 80 122 93 193 4 21 13 47 19 58 10 16 8 22 -9 37 -20 16 -22
24 -17 104 4 62 1 110 -12 172 -32 153 -97 218 -256 261 -50 13 -93 23 -97 23
-4 -1 -18 -3 -32 -5z m-1056 -689 c-23 -17 -34 -19 -34 -5 0 11 42 31 49 24 3
-2 -4 -11 -15 -19z m886 -1328 c-4 -4 -7 16 -7 45 l-1 53 8 -45 c4 -25 4 -49
0 -53z m47 7 c-3 -3 -12 -4 -19 -1 -8 3 -5 6 6 6 11 1 17 -2 13 -5z m13 -106
c0 -12 -7 -10 -24 8 -9 8 -13 20 -10 26 7 11 34 -17 34 -34z m378 -45 c-10 -2
-18 -9 -18 -15 0 -19 -43 -48 -72 -48 -15 0 -28 5 -28 10 0 6 -13 10 -30 10
-22 0 -28 4 -24 15 5 12 -2 15 -28 15 -19 0 -39 -5 -46 -12 -9 -9 -12 -8 -12
5 0 13 13 17 78 20 120 5 199 5 180 0z m-304 -20 c4 -9 4 -18 1 -21 -3 -3 -5
0 -5 7 0 9 -8 11 -25 7 -22 -6 -33 3 -20 15 11 12 44 6 49 -8z m-9 -54 c-4
-11 -2 -19 4 -19 6 0 11 5 11 12 0 6 2 9 5 6 3 -3 3 -12 -1 -21 -5 -14 -8 -15
-28 -2 -13 8 -26 12 -31 8 -4 -5 -4 -2 0 6 6 11 4 13 -9 8 -10 -4 -15 -3 -11
3 8 13 35 13 35 -1 0 -5 4 -8 10 -4 5 3 6 13 3 22 -4 11 -3 14 6 9 6 -4 9 -16
6 -27z m70 -39 c3 -5 2 -10 -4 -10 -5 0 -13 5 -16 10 -3 6 -2 10 4 10 5 0 13
-4 16 -10z m163 -11 c15 -1 5 -5 -23 -10 -27 -4 -52 -6 -54 -3 -9 8 23 24 37
19 8 -3 26 -6 40 -6z m-65 -106 c-1 -12 5 -27 14 -35 14 -11 16 -11 11 2 -7
21 89 26 111 6 9 -8 25 -16 36 -18 11 -2 21 -12 23 -23 3 -17 1 -17 -7 -5 -13
19 -14 0 -1 -20 6 -10 10 -11 10 -2 0 6 9 12 20 12 12 0 20 -7 20 -17 0 -24
-17 -49 -26 -40 -4 4 -15 0 -24 -8 -16 -15 -18 -14 -22 10 -3 14 -1 25 3 25 5
0 9 4 9 8 0 5 -25 -4 -57 -20 -31 -15 -59 -26 -62 -23 -3 4 1 10 8 15 12 7 11
11 -2 25 -10 9 -17 12 -17 6 0 -17 -18 -13 -39 8 -10 10 -27 23 -37 29 -18 10
-18 11 0 31 11 12 14 21 8 21 -7 0 -12 9 -12 21 0 14 5 19 18 17 10 -2 16 -12
15 -25z m181 -12 c4 -5 -3 -7 -14 -4 -23 6 -26 13 -6 13 8 0 17 -4 20 -9z
m-179 -139 c-3 -3 -11 0 -18 7 -9 10 -8 11 6 5 10 -3 15 -9 12 -12z m165 -222
c9 0 32 -61 26 -68 -3 -2 -8 7 -12 22 -4 16 -15 28 -30 32 -13 3 -24 11 -24
16 0 6 7 7 16 4 9 -3 19 -6 24 -6z m90 -314 c0 -3 -4 -8 -10 -11 -5 -3 -10 -1
-10 4 0 6 5 11 10 11 6 0 10 -2 10 -4z"/>
</g>
</svg>
